Coordinates
version=1
nRows=43
nColumns=12
inDegrees=yes

Units are S.I. units (second, meters, Newtons, ...)
Angles are in degrees

endheader
time	SC_y	SC_z	SC_x	AC_y	AC_z	AC_x	GH_y	GH_z	GH_yy	EL_x	PS_y
       0.0              -55.51         -2.585          61.57          69.66         -8.603          -18.9          175.5          -11.2          95.56          119.8          34.46
    0.0344               -55.5         -2.579          61.57          69.66         -8.604          -18.9          175.5          -11.2          95.56          119.8          34.47
    0.0688               -55.5         -2.573          61.56          69.66         -8.604         -18.89          175.4          -11.2          95.55          119.8          34.48
    0.1032               -55.5         -2.566          61.56          69.66         -8.605         -18.89          175.4          -11.2          95.55          119.8          34.48
    0.1376              -55.49         -2.558          61.56          69.66         -8.605         -18.89          175.3          -11.2          95.55          119.8          34.49
     0.172              -55.49         -2.551          61.56          69.66         -8.606         -18.88          175.2          -11.2          95.54          119.8           34.5
    0.2064              -55.48         -2.542          61.55          69.66         -8.607         -18.88          175.2         -11.19          95.54          119.8          34.52
    0.2408              -55.47         -2.533          61.55          69.66         -8.608         -18.88          175.1         -11.19          95.53          119.8          34.53
    0.2752              -55.47         -2.524          61.55          69.66         -8.608         -18.87          175.0         -11.19          95.53          119.8          34.54
    0.3096              -55.46         -2.513          61.54          69.65         -8.609         -18.87          175.0         -11.19          95.52          119.8          34.55
     0.344              -55.46         -2.502          61.54          69.65          -8.61         -18.86          174.9         -11.19          95.52          119.8          34.57
    0.3784              -55.45          -2.49          61.53          69.65         -8.611         -18.86          174.8         -11.18          95.51          119.8          34.58
    0.4128              -55.44         -2.477          61.53          69.65         -8.612         -18.85          174.7         -11.18           95.5          119.8           34.6
    0.4472              -55.43         -2.464          61.52          69.65         -8.613         -18.85          174.6         -11.18          95.49          119.8          34.62
    0.4816              -55.42         -2.449          61.52          69.65         -8.615         -18.84          174.5         -11.17          95.49          119.9          34.64
     0.516              -55.41         -2.432          61.51          69.65         -8.616         -18.84          174.3         -11.17          95.48          119.9          34.66
    0.5504               -55.4         -2.415           61.5          69.65         -8.617         -18.83          174.2         -11.17          95.47          119.9          34.68
    0.5848              -55.39         -2.395           61.5          69.65         -8.619         -18.82          174.1         -11.16          95.46          119.9          34.71
    0.6192              -55.38         -2.374          61.49          69.65         -8.621         -18.81          173.9         -11.16          95.44          119.9          34.74
    0.6536              -55.36         -2.351          61.48          69.65         -8.623          -18.8          173.7         -11.15          95.43          119.9          34.77
     0.688              -55.35         -2.326          61.47          69.65         -8.625         -18.79          173.5         -11.14          95.42          119.9           34.8
    0.7224              -55.33         -2.298          61.46          69.65         -8.627         -18.78          173.3         -11.14           95.4          119.9          34.84
    0.7568              -55.31         -2.267          61.45          69.65         -8.629         -18.77          173.1         -11.13          95.38          119.9          34.88
    0.7912              -55.29         -2.233          61.43          69.65         -8.632         -18.75          172.8         -11.12          95.36          119.9          34.93
    0.8256              -55.27         -2.195          61.42          69.64         -8.635         -18.74          172.5         -11.11          95.34          119.9          34.98
      0.86              -55.24         -2.153           61.4          69.64         -8.639         -18.72          172.2          -11.1          95.32          119.9          35.03
    0.8944              -55.21         -2.106          61.38          69.64         -8.643          -18.7          171.9         -11.09          95.29          119.9          35.09
    0.9288              -55.18         -2.053          61.36          69.64         -8.647         -18.68          171.5         -11.08          95.26          119.9          35.17
    0.9632              -55.14         -1.992          61.34          69.64         -8.652         -18.66          171.0         -11.07          95.23          120.0          35.25
    0.9976               -55.1         -1.924          61.31          69.63         -8.658         -18.63          170.5         -11.05          95.19          120.0          35.34
     1.032              -55.05         -1.846          61.28          69.63         -8.664          -18.6          169.9         -11.03          95.15          120.0          35.44
     1.066               -55.0         -1.757          61.25          69.63         -8.672         -18.56          169.2         -11.01           95.1          120.0          35.56
     1.101              -54.93         -1.653          61.21          69.63          -8.68         -18.52          168.4         -10.99          95.04          120.0           35.7
     1.135              -54.86         -1.533          61.16          69.62          -8.69         -18.47          167.5         -10.96          94.97          120.1          35.85
      1.17              -54.77         -1.393          61.11          69.62         -8.702         -18.41          166.4         -10.93          94.89          120.1          36.04
     1.204              -54.67         -1.227          61.04          69.61         -8.715         -18.34          165.2         -10.89           94.8          120.2          36.26
     1.238              -54.55          -1.03          60.97           69.6         -8.732         -18.26          163.7         -10.84          94.69          120.2          36.52
     1.273              -54.41        -0.7943          60.88           69.6         -8.751         -18.17          161.9         -10.79          94.56          120.3          36.83
     1.307              -54.23        -0.5089          60.77          69.59         -8.775         -18.05          159.7         -10.72           94.4          120.3          37.21
     1.342              -54.01        -0.1603          60.63          69.57         -8.804         -17.91          157.0         -10.64           94.2          120.4          37.68
     1.376              -53.75           0.27          60.47          69.56         -8.839         -17.73          153.8         -10.54          93.96          120.5          38.25
      1.41              -53.42         0.8067          60.26          69.54         -8.883         -17.51          149.7         -10.42          93.66          120.7          38.96
     1.445               -53.0          1.483           60.0          69.52         -8.939         -17.24          144.5         -10.26          93.28          120.8          39.86
